<?xml version="1.0" encoding="UTF-8" standalone="no"?>
<!-- Created with Inkscape (http://www.inkscape.org/) -->

<svg
   version="1.1"
   width="40"
   height="40"
   id="svg2"
   xml:space="preserve"
   inkscape:version="1.2.1 (9c6d41e410, 2022-07-14)"
   sodipodi:docname="linkedin.svg"
   xmlns:inkscape="http://www.inkscape.org/namespaces/inkscape"
   xmlns:sodipodi="http://sodipodi.sourceforge.net/DTD/sodipodi-0.dtd"
   xmlns="http://www.w3.org/2000/svg"
   xmlns:svg="http://www.w3.org/2000/svg"
   xmlns:rdf="http://www.w3.org/1999/02/22-rdf-syntax-ns#"
   xmlns:cc="http://creativecommons.org/ns#"
   xmlns:dc="http://purl.org/dc/elements/1.1/"><metadata
     id="metadata17"><rdf:RDF><cc:Work
         rdf:about=""><dc:format>image/svg+xml</dc:format><dc:type
           rdf:resource="http://purl.org/dc/dcmitype/StillImage" /></cc:Work></rdf:RDF></metadata><sodipodi:namedview
     pagecolor="#ffffff"
     bordercolor="#666666"
     borderopacity="1"
     objecttolerance="10"
     gridtolerance="10"
     guidetolerance="10"
     inkscape:pageopacity="0"
     inkscape:pageshadow="2"
     inkscape:window-width="1920"
     inkscape:window-height="1057"
     id="namedview15"
     showgrid="false"
     inkscape:zoom="5.3940105"
     inkscape:cx="53.392555"
     inkscape:cy="28.179404"
     inkscape:window-x="1912"
     inkscape:window-y="-8"
     inkscape:window-maximized="1"
     inkscape:current-layer="svg2"
     width="40px"
     inkscape:showpageshadow="0"
     inkscape:pagecheckerboard="0"
     inkscape:deskcolor="#d1d1d1" /><defs
     id="defs6"><inkscape:perspective
       sodipodi:type="inkscape:persp3d"
       inkscape:vp_x="0 : 495 : 1"
       inkscape:vp_y="0 : 1000 : 0"
       inkscape:vp_z="765 : 495 : 1"
       inkscape:persp3d-origin="382.5 : 330 : 1"
       id="perspective19" /><clipPath
       id="clipPath20"><path
         d="M 0,1440 0,0 l 1551.6,0 0,1440 L 0,1440 z"
         id="path22" /></clipPath></defs><path
     d="M 37.039208,0 2.9524312,0 C 1.3235483,0 0,1.2910548 0,2.8829991 L 0,37.113601 C 0,38.706945 1.3235483,40 2.9524312,40 L 37.039208,40 C 38.670851,40 40,38.706945 40,37.113601 L 40,2.8829991 C 40,1.2910548 38.670851,0 37.039208,0"
     id="path24"
     style="fill:#fbf1c7;fill-opacity:1;fill-rule:nonzero;stroke:none" /><path
     d="m 8.8983209,5.5069073 c 1.8965571,0 3.4378691,1.541646 3.4378691,3.4388796 0,1.8989331 -1.541312,3.4407791 -3.4378691,3.4407791 -1.9015569,0 -3.4407023,-1.541846 -3.4407023,-3.4407791 0,-1.8972336 1.5391454,-3.4388796 3.4407023,-3.4388796 m -2.9679588,9.4892677 5.9330849,0 0,19.089132 -5.9330849,0 0,-19.089132"
     id="path26"
     style="fill:#3c3836;fill-opacity:1;fill-rule:nonzero;stroke:none" /><path
     d="m 15.584423,14.996175 5.691115,0 0,2.608109 0.07889,0 c 0.791545,-1.500748 2.726936,-3.083292 5.613312,-3.083292 6.007638,0 7.11679,3.953861 7.11679,9.093381 l 0,10.470934 -5.928807,0 0,-9.282975 c 0,-2.214823 -0.04056,-5.062123 -3.082817,-5.062123 -3.087319,0 -3.560063,2.411816 -3.560063,4.901729 l 0,9.443369 -5.928417,0 0,-19.089132"
     id="path28"
     style="fill:#3c3836;fill-opacity:1;fill-rule:nonzero;stroke:none" /></svg>
